<?xml version="1.0" encoding="utf-8"?>
<svg xmlns="http://www.w3.org/2000/svg" width="275px" height="275px" fill="#666666" viewBox="0 0 275 275">
  <path d="M 230.48 98.691 C 229.064 99.789 204.078 113.868 204.078 145.175 C 204.078 181.386 235.873 194.196 236.824 194.513 C 236.678 195.294 231.773 212.057 220.06 229.138 C 209.618 244.168 198.71 259.175 182.117 259.175 C 165.525 259.175 161.255 249.537 142.1 249.537 C 123.434 249.537 116.797 259.492 101.619 259.492 C 86.442 259.492 75.851 245.584 63.676 228.503 C 49.571 208.445 38.176 177.286 38.176 147.713 C 38.176 100.276 69.019 75.12 99.374 75.12 C 115.503 75.12 128.948 85.71 139.075 85.71 C 148.712 85.71 163.743 74.486 182.093 74.486 C 189.048 74.486 214.033 75.12 230.48 98.691 Z M 173.382 54.403 C 180.97 45.4 186.339 32.907 186.339 20.413 C 186.339 18.681 186.191 16.924 185.876 15.509 C 173.528 15.973 158.838 23.732 149.982 34.004 C 143.027 41.91 136.537 54.403 136.537 67.068 C 136.537 68.97 136.853 70.875 137 71.484 C 137.781 71.631 139.049 71.802 140.319 71.802 C 151.397 71.802 165.33 64.384 173.382 54.403 Z" style=""/>
</svg>