<?xml version="1.0" encoding="utf-8"?>
<svg xmlns="http://www.w3.org/2000/svg" viewBox="0 0 400 100">
  <defs>
    <style>.cls-1{fill:#112c40;}.cls-2{fill:#00f260;}</style>
  </defs>
  <g id="Logos" style="" transform="matrix(1.60341, 0, 0, 1.60341, -120.682001, -30.175011)">
    <path class="cls-1" d="M225.82277,21.56336a4.64625,4.64625,0,1,0,4.64607,4.64608A4.64606,4.64606,0,0,0,225.82277,21.56336Z"/>
    <polygon class="cls-1" points="218.22 33.096 218.22 41.544 221.599 41.544 221.599 66.886 230.047 66.886 230.047 33.096 221.599 33.096 218.22 33.096"/>
    <path class="cls-1" d="M206.415,34.67651a15.20107,15.20107,0,0,0-21.96372,13.62558V66.8864h8.4523V48.30209a6.75571,6.75571,0,1,1,13.51142,0V66.8864h8.44574V48.30209A15.20894,15.20894,0,0,0,206.415,34.67651Z"/>
    <path class="cls-1" d="M171.9677,53.69058a6.75571,6.75571,0,1,1-13.51141,0V35.10627h-8.44542V53.69058a15.20457,15.20457,0,1,0,30.40914,0V35.10627H171.9677Z"/>
    <path class="cls-1" d="M99.70582,53.69058a6.75571,6.75571,0,1,1-13.51142,0V35.10627H77.749V53.69058A15.20147,15.20147,0,0,0,88.731,68.30266v7.92675a4.22271,4.22271,0,1,0,8.44541,0V68.30332a15.18079,15.18079,0,0,0,10.9817-14.61274V35.10627h-8.4523Z"/>
    <path class="cls-1" d="M129.0845,33.09621a16.89493,16.89493,0,1,0,16.89509,16.8951A16.89515,16.89515,0,0,0,129.0845,33.09621Zm0,25.34248a8.44755,8.44755,0,1,1,8.44771-8.44738A8.44729,8.44729,0,0,1,129.0845,58.43869Z"/>
    <path class="cls-2" d="M283.58018,27.5988a7.28649,7.28649,0,0,1,2.659.49669l1.38313-6.4862.168-.79917a16.69576,16.69576,0,0,0-5.86878-1.249c-.17453-.01345-.35563-.01345-.537-.01345s-.36251,0-.537.01345a9.83731,9.83731,0,0,0-1.49074.188A10.458,10.458,0,0,0,270.91616,30.016v3.06282H264.5976v8.42705h6.31856V66.7578l8.44049-.01739V41.50587h8.43361V33.07882h-8.43361V31.82233A4.22253,4.22253,0,0,1,283.58018,27.5988Z"/>
    <path class="cls-2" d="M322.251,49.971a16.8925,16.8925,0,1,0-17.76448,16.8777q.433.02018.86676.02.433,0,.86675-.02a21.06249,21.06249,0,0,0,14.43853-6.54427l-1.31686-.8533-5.67719-3.68845a11.5417,11.5417,0,0,1-7.83422,3.487c-.15485.01345-.31593.01345-.477.01345-.16141,0-.31593,0-.477-.01345a8.522,8.522,0,0,1-7.96874-7.34377h25.229A16.57856,16.57856,0,0,0,322.251,49.971Zm-24.3491-4.82422a8.44718,8.44718,0,0,1,14.90242,0Z"/>
    <circle class="cls-2" cx="256.59212" cy="26.19205" r="4.64608"/>
    <polygon class="cls-2" points="248.99 33.079 248.99 41.526 252.368 41.526 252.368 66.869 260.816 66.869 260.816 33.079 252.368 33.079 248.99 33.079"/>
    <rect class="cls-2" x="235.84389" y="21.54598" width="8.44246" height="45.32271"/>
  </g>
</svg>