<?xml version="1.0" encoding="utf-8"?>
<svg xmlns="http://www.w3.org/2000/svg" viewBox="0 0 500 500" xmlns:bx="https://boxy-svg.com">
  <ellipse style="fill: rgb(0, 242, 96); paint-order: stroke;" cx="250" cy="250" rx="250" ry="250"/>
  <path class="cls-1" d="M 301.032 239.034 C 301.032 278.343 258.485 302.906 224.442 283.254 C 208.646 274.133 198.912 257.277 198.912 239.034 L 198.912 98.572 L 135.082 98.572 L 135.082 239.034 C 135.054 290.221 168.899 335.262 218.087 349.474 L 218.087 409.387 C 218.05 433.955 244.617 449.355 265.914 437.099 C 275.832 431.395 281.931 420.822 281.917 409.387 L 281.917 349.479 C 331.125 335.314 364.993 290.245 364.918 239.034 L 364.918 98.572 L 301.032 98.572 L 301.032 239.034 Z" style="stroke-width: 1; fill: rgb(255, 255, 255);"/>
  <defs>
    <bx:grid x="0" y="0" width="45.14" height="45.14"/>
  </defs>
</svg>